<?xml version="1.0" encoding="UTF-8" standalone="no"?>
<!DOCTYPE svg PUBLIC "-//W3C//DTD SVG 1.1//EN" "http://www.w3.org/Graphics/SVG/1.1/DTD/svg11.dtd">
<svg width="100%" height="100%" viewBox="0 0 832 201" version="1.1" xmlns="http://www.w3.org/2000/svg" xmlns:xlink="http://www.w3.org/1999/xlink" xml:space="preserve" xmlns:serif="http://www.serif.com/" style="fill-rule:evenodd;clip-rule:evenodd;stroke-linejoin:round;stroke-miterlimit:2;">
    <g transform="matrix(1,0,0,1,-680.507,1.09801e-13)">
        <path d="M1477.25,0L1512,19.937L1512,59.937L1477.25,80L1442.61,60L1442.61,20L1477.25,0ZM1477.26,4.615L1508,22.254C1508,22.254 1508,57.628 1508,57.628C1508,57.628 1477.25,75.381 1477.25,75.381C1477.25,75.381 1446.61,57.691 1446.61,57.691C1446.61,57.691 1446.61,22.309 1446.61,22.309L1477.26,4.615Z" style="fill:rgb(212,0,106);fill-opacity:0.8;"/>
        <g transform="matrix(1,0,0,1,-34.641,60.1252)">
            <path d="M1477.25,0L1512,19.937L1512,59.937L1477.25,80L1442.61,60L1442.61,20L1477.25,0ZM1477.26,4.615L1508,22.254C1508,22.254 1508,57.628 1508,57.628C1508,57.628 1477.25,75.381 1477.25,75.381C1477.25,75.381 1446.61,57.691 1446.61,57.691C1446.61,57.691 1446.61,22.309 1446.61,22.309L1477.26,4.615Z" style="fill:rgb(212,0,106);fill-opacity:0.8;"/>
        </g>
        <g transform="matrix(1,0,0,1,-69.282,120.25)">
            <path d="M1477.25,0L1512,19.937L1512,59.937L1477.25,80L1442.61,60L1442.61,20L1477.25,0ZM1477.26,4.615L1508,22.254C1508,22.254 1508,57.628 1508,57.628C1508,57.628 1477.25,75.381 1477.25,75.381C1477.25,75.381 1446.61,57.691 1446.61,57.691C1446.61,57.691 1446.61,22.309 1446.61,22.309L1477.26,4.615Z" style="fill:rgb(212,0,106);fill-opacity:0.8;"/>
        </g>
        <g transform="matrix(1,0,0,1,-173.205,60.2504)">
            <path d="M1477.25,0L1512,19.937L1512,59.937L1477.25,80L1442.61,60L1442.61,20L1477.25,0ZM1477.26,4.615L1508,22.254C1508,22.254 1508,57.628 1508,57.628C1508,57.628 1477.25,75.381 1477.25,75.381C1477.25,75.381 1446.61,57.691 1446.61,57.691C1446.61,57.691 1446.61,22.309 1446.61,22.309L1477.26,4.615Z" style="fill:rgb(212,0,106);fill-opacity:0.8;"/>
        </g>
        <path d="M1407.97,0L1442.61,20L1442.61,60L1407.97,80L1373.33,60L1373.33,20L1407.97,0ZM1407.97,4.619L1438.61,22.309C1438.61,22.309 1438.61,57.691 1438.61,57.691C1438.61,57.691 1407.97,75.381 1407.97,75.381C1407.97,75.381 1377.33,57.691 1377.33,57.691C1377.33,57.691 1377.33,22.309 1377.33,22.309C1377.33,22.309 1407.97,4.619 1407.97,4.619Z" style="fill:rgb(212,0,106);fill-opacity:0.6;"/>
        <path d="M1338.69,0L1373.33,20L1373.33,60L1338.69,80L1304.05,60L1304.05,20L1338.69,0ZM1338.69,4.619L1369.33,22.309C1369.33,22.309 1369.33,57.691 1369.33,57.691C1369.33,57.691 1338.69,75.381 1338.69,75.381C1338.69,75.381 1308.05,57.691 1308.05,57.691C1308.05,57.691 1308.05,22.309 1308.05,22.309C1308.05,22.309 1338.69,4.619 1338.69,4.619Z" style="fill:rgb(212,0,106);fill-opacity:0.6;"/>
        <path d="M1269.4,0L1304.05,20L1304.05,60L1269.4,80L1234.76,60L1234.76,20L1269.4,0ZM1269.4,4.619L1300.05,22.309C1300.05,22.309 1300.05,57.691 1300.05,57.691C1300.05,57.691 1269.4,75.381 1269.4,75.381C1269.4,75.381 1238.76,57.691 1238.76,57.691C1238.76,57.691 1238.76,22.309 1238.76,22.309C1238.76,22.309 1269.4,4.619 1269.4,4.619Z" style="fill:rgb(212,0,106);fill-opacity:0.8;"/>
        <path d="M1200.12,0L1234.76,20L1234.76,60L1200.12,80L1165.48,60L1165.48,20L1200.12,0ZM1200.12,4.619L1230.76,22.309C1230.76,22.309 1230.76,57.691 1230.76,57.691C1230.76,57.691 1200.12,75.381 1200.12,75.381C1200.12,75.381 1169.48,57.691 1169.48,57.691C1169.48,57.691 1169.48,22.309 1169.48,22.309C1169.48,22.309 1200.12,4.619 1200.12,4.619Z" style="fill:rgb(212,0,106);fill-opacity:0.6;"/>
        <path d="M1130.84,0L1165.48,20L1165.48,60L1130.84,80L1096.2,60L1096.2,20L1130.84,0ZM1130.84,4.619L1161.48,22.309C1161.48,22.309 1161.48,57.691 1161.48,57.691C1161.48,57.691 1130.84,75.381 1130.84,75.381C1130.84,75.381 1100.2,57.691 1100.2,57.691C1100.2,57.691 1100.2,22.309 1100.2,22.309C1100.2,22.309 1130.84,4.619 1130.84,4.619Z" style="fill:rgb(212,0,106);fill-opacity:0.8;"/>
        <path d="M922.994,-0L957.635,20L957.635,60L922.994,80L888.353,60L888.353,20L922.994,-0ZM922.994,4.619L953.635,22.309C953.635,22.309 953.635,57.691 953.635,57.691C953.635,57.691 922.994,75.381 922.994,75.381C922.994,75.381 892.353,57.691 892.353,57.691C892.353,57.691 892.353,22.309 892.353,22.309C892.353,22.309 922.994,4.619 922.994,4.619Z" style="fill:rgb(212,0,106);fill-opacity:0.8;"/>
        <path d="M853.712,-0L888.353,20L888.353,60L853.712,80L819.071,60L819.071,20L853.712,-0ZM853.712,4.619L884.353,22.309C884.353,22.309 884.353,57.691 884.353,57.691C884.353,57.691 853.712,75.381 853.712,75.381C853.712,75.381 823.071,57.691 823.071,57.691C823.071,57.691 823.071,22.309 823.071,22.309C823.071,22.309 853.712,4.619 853.712,4.619Z" style="fill:rgb(212,0,106);fill-opacity:0.8;"/>
        <g transform="matrix(1,0,0,1,207.846,-9.28146e-14)">
            <path d="M784.43,0L819.071,20L819.071,60L784.43,80L749.789,60L749.789,20L784.43,0ZM784.43,4.619L815.071,22.309C815.071,22.309 815.071,57.691 815.071,57.691C815.071,57.691 784.43,75.381 784.43,75.381C784.43,75.381 753.789,57.691 753.789,57.691C753.789,57.691 753.789,22.309 753.789,22.309C753.789,22.309 784.43,4.619 784.43,4.619Z" style="fill:rgb(212,0,106);fill-opacity:0.6;"/>
        </g>
        <g transform="matrix(1,0,0,1,69.282,-2.4869e-14)">
            <path d="M645.866,0L680.507,20L680.507,60L645.866,80L611.225,60L611.225,20L645.866,0ZM645.866,4.619L676.507,22.309C676.507,22.309 676.507,57.691 676.507,57.691C676.507,57.691 645.866,75.381 645.866,75.381C645.866,75.381 615.225,57.691 615.225,57.691C615.225,57.691 615.225,22.309 615.225,22.309C615.225,22.309 645.866,4.619 645.866,4.619Z" style="fill:rgb(212,0,106);fill-opacity:0.6;"/>
        </g>
    </g>
</svg>
